# xmcd
#
# Track frame offsets:
#	150
#	13842
#	23779
#	38647
#	52972
#	65363
#	76426
#	93851
#	103474
#	113027
#	126849
#	140389
#	152440
#	162335
#	176411
#
# Disc length: 2522
#
# Revision: 3
# Processed by: cddbd v1.5.1PL0 Copyright (c) Steve Scherf et al.
# Submitted via: audiograbber 1.80.04
# Normalized: r1:DSETVAR1,TDELIM( - ),TSWAP
#
DISCID=b909d80f
DTITLE=Various Artist - Classic Country, 1970 - 1974, CD-1
DYEAR=1900
DGENRE=Country Classic
TTITLE0=Loretta Lynn - Coal Miner's Daughter
TTITLE1=Mel Tillis - I Ain't Never
TTITLE2=Olivia Newton John - If You Love Me (Let Me Know)
TTITLE3=George Jones - The Grand Tour
TTITLE4=Donna Fargo - Funny Face
TTITLE5=Merle Haggard - If We Make It Through December
TTITLE6=Ray Price - For The Good Times
TTITLE7=Charley Pride - Kiss An Angel Good Morning
TTITLE8=Dottie West - Country Sunshine
TTITLE9=Conway Twitty - You've Been This Far Before
TTITLE10=Charlie Rich - Behind Closed Doors
TTITLE11=Tammy Wynette - He Loves Me All The Way
TTITLE12=Tom T. Hall - I Love
TTITLE13=Dolly Parton - Coat Of Many Colors
TTITLE14=The Statler Brothers - Do You Remember These
EXTD=
EXTT0=
EXTT1=
EXTT2=
EXTT3=
EXTT4=
EXTT5=
EXTT6=
EXTT7=
EXTT8=
EXTT9=
EXTT10=
EXTT11=
EXTT12=
EXTT13=
EXTT14=
PLAYORDER=
